<svg width="31" height="31" viewBox="0 0 31 31" fill="none" xmlns="http://www.w3.org/2000/svg">
<path fill-rule="evenodd" clip-rule="evenodd" d="M8.4268 2.51306C8.39214 2.18336 8.22794 1.88092 7.9703 1.67229C7.71266 1.46366 7.38269 1.36592 7.05299 1.40057C6.72328 1.43522 6.42085 1.59943 6.21221 1.85707C6.00358 2.11471 5.90584 2.44468 5.94049 2.77438L6.15826 4.8463L5.74388 4.88986C4.97457 4.97072 4.26889 5.35387 3.78208 5.95503C3.29527 6.55619 3.06721 7.32611 3.14806 8.09542L3.19162 8.50981L1.1197 8.72757C0.789992 8.76223 0.487557 8.92644 0.278924 9.18408C0.0702915 9.44171 -0.0274489 9.77168 0.00720443 10.1014C0.0418578 10.4311 0.206066 10.7335 0.463706 10.9422C0.721346 11.1508 1.05131 11.2485 1.38102 11.2139L3.45294 10.9961L3.88847 15.14L1.81655 15.3577C1.48685 15.3924 1.18441 15.5566 0.975781 15.8142C0.767148 16.0719 0.669407 16.4018 0.704061 16.7315C0.738714 17.0612 0.902923 17.3637 1.16056 17.5723C1.4182 17.7809 1.74817 17.8787 2.07787 17.844L4.14979 17.6263L4.58533 21.7701L2.51341 21.9879C2.1837 22.0225 1.88127 22.1867 1.67264 22.4444C1.464 22.702 1.36626 23.032 1.40092 23.3617C1.43557 23.6914 1.59978 23.9938 1.85742 24.2025C2.11506 24.4111 2.44503 24.5088 2.77473 24.4742L4.84665 24.2564L4.8902 24.6708C5.05849 26.272 6.49459 27.4349 8.09577 27.2666L8.51015 27.223L8.72792 29.295C8.76257 29.6247 8.92678 29.9271 9.18442 30.1357C9.44206 30.3444 9.77203 30.4421 10.1017 30.4075C10.4314 30.3728 10.7339 30.2086 10.9425 29.951C11.1511 29.6933 11.2489 29.3633 11.2142 29.0336L10.9965 26.9617L15.1403 26.5262L15.3581 28.5981C15.3927 28.9278 15.5569 29.2302 15.8146 29.4389C16.0722 29.6475 16.4022 29.7453 16.7319 29.7106C17.0616 29.6759 17.364 29.5117 17.5726 29.2541C17.7813 28.9965 17.879 28.6665 17.8444 28.3368L17.6266 26.2649L21.7704 25.8293L21.9882 27.9013C22.0229 28.231 22.1871 28.5334 22.4447 28.742C22.7024 28.9507 23.0323 29.0484 23.362 29.0137C23.6917 28.9791 23.9942 28.8149 24.2028 28.5572C24.4114 28.2996 24.5092 27.9696 24.4745 27.6399L24.2567 25.568L24.6711 25.5245C25.4404 25.4436 26.1461 25.0604 26.6329 24.4593C27.1197 23.8581 27.3478 23.0882 27.2669 22.3189L27.2234 21.9045L29.2953 21.6867C29.625 21.6521 29.9275 21.4879 30.1361 21.2302C30.3447 20.9726 30.4425 20.6426 30.4078 20.3129C30.3732 19.9832 30.2089 19.6808 29.9513 19.4722C29.6937 19.2635 29.3637 19.1658 29.034 19.2004L26.9621 19.4182L26.5265 15.2744L28.5985 15.0566C28.9282 15.0219 29.2306 14.8577 29.4392 14.6001C29.6479 14.3425 29.7456 14.0125 29.7109 13.6828C29.6763 13.3531 29.5121 13.0506 29.2544 12.842C28.9968 12.6334 28.6668 12.5356 28.3371 12.5703L26.2652 12.7881L25.8297 8.64422L27.9016 8.42645C28.2313 8.3918 28.5337 8.22759 28.7424 7.96995C28.951 7.71231 29.0487 7.38234 29.0141 7.05264C28.9794 6.72294 28.8152 6.4205 28.5576 6.21187C28.3 6.00323 27.97 5.90549 27.6403 5.94015L25.5684 6.15792L25.5248 5.74353C25.4439 4.97422 25.0608 4.26854 24.4596 3.78173C23.8585 3.29492 23.0886 3.06686 22.3192 3.14772L21.9049 3.19127L21.6871 1.11935C21.6524 0.789646 21.4882 0.487211 21.2306 0.278578C20.9729 0.0699457 20.643 -0.0277946 20.3133 0.00685867C19.9836 0.0415122 19.6811 0.205721 19.4725 0.46336C19.2639 0.721 19.1661 1.05097 19.2008 1.38067L19.4186 3.45259L15.2747 3.88813L15.0569 1.81621C15.0223 1.4865 14.8581 1.18407 14.6004 0.975435C14.3428 0.766802 14.0128 0.669062 13.6831 0.703715C13.3534 0.738368 13.051 0.902577 12.8424 1.16022C12.6337 1.41786 12.536 1.74782 12.5706 2.07753L12.7884 4.14945L8.64457 4.58498L8.4268 2.51306ZM5.63437 7.8341C5.62282 7.7242 5.6554 7.61421 5.72494 7.52833C5.79448 7.44245 5.8953 7.38771 6.0052 7.37616L22.5806 5.63402C22.6905 5.62247 22.8005 5.65505 22.8863 5.7246C22.9722 5.79414 23.0269 5.89495 23.0385 6.00485L24.7806 22.5802C24.7922 22.6901 24.7596 22.8001 24.6901 22.886C24.6205 22.9719 24.5197 23.0266 24.4098 23.0382L7.83445 24.7803C7.72454 24.7918 7.61456 24.7593 7.52868 24.6897C7.4428 24.6202 7.38806 24.5194 7.37651 24.4095L5.63437 7.8341ZM15.354 19.8054L14.7636 18.5737L11.4038 18.9268L11.0825 20.2543C11.0043 20.5765 10.8014 20.8545 10.5183 21.0271C10.2352 21.1997 9.89514 21.2528 9.57291 21.1747C9.25069 21.0965 8.9727 20.8936 8.8001 20.6105C8.62751 20.3274 8.57444 19.9873 8.65258 19.6651L10.6394 11.4625L10.6428 11.447L10.6477 11.4298C10.8313 10.7535 11.3791 10.1614 12.1714 10.0781C12.9654 9.99464 13.6226 10.4602 13.9447 11.0849L13.9512 11.0993L13.9596 11.1152L17.6084 18.7255C17.7463 19.0237 17.7612 19.3642 17.6499 19.6734C17.5386 19.9825 17.3101 20.2354 17.0138 20.3773C16.7175 20.5193 16.3772 20.5388 16.0666 20.4318C15.7559 20.3248 15.4999 20.0997 15.354 19.8054ZM12.5876 14.0379L13.6155 16.1806L12.0276 16.3475L12.5876 14.0379ZM18.5011 10.668C18.4664 10.3383 18.5642 10.0083 18.7728 9.75071C18.9814 9.49307 19.2839 9.32886 19.6136 9.29421C19.9433 9.25955 20.2732 9.35729 20.5309 9.56593C20.7885 9.77456 20.9527 10.077 20.9874 10.4067L21.859 18.6994C21.8936 19.0291 21.7959 19.359 21.5873 19.6167C21.3786 19.8743 21.0762 20.0385 20.7465 20.0732C20.4168 20.1078 20.0868 20.0101 19.8292 19.8014C19.5715 19.5928 19.4073 19.2904 19.3727 18.9607L18.5011 10.668Z" fill="#008647"/>
</svg>
