<svg width="100" height="100" viewBox="0 0 100 100" fill="none" xmlns="http://www.w3.org/2000/svg">
<path opacity="0.4" d="M28.1677 91.6668H71.8344C83.3344 91.6668 87.9177 84.6252 88.4594 76.0418L90.626 41.6252C91.2094 32.6252 84.0427 25.0002 75.001 25.0002C72.4594 25.0002 70.126 23.5418 68.9594 21.2918L65.9594 15.2502C64.0427 11.4585 59.0427 8.3335 54.7927 8.3335H45.251C40.9594 8.3335 35.9594 11.4585 34.0427 15.2502L31.0427 21.2918C29.876 23.5418 27.5427 25.0002 25.001 25.0002C15.9594 25.0002 8.79269 32.6252 9.37602 41.6252L11.5427 76.0418C12.0427 84.6252 16.6677 91.6668 28.1677 91.6668Z" fill="#7DD2AA"/>
<path d="M56.25 36.4585H43.75C42.0417 36.4585 40.625 35.0418 40.625 33.3335C40.625 31.6252 42.0417 30.2085 43.75 30.2085H56.25C57.9583 30.2085 59.375 31.6252 59.375 33.3335C59.375 35.0418 57.9583 36.4585 56.25 36.4585Z" fill="#7DD2AA"/>
<path d="M49.9964 75.5417C57.7744 75.5417 64.0798 69.2363 64.0798 61.4583C64.0798 53.6803 57.7744 47.375 49.9964 47.375C42.2184 47.375 35.9131 53.6803 35.9131 61.4583C35.9131 69.2363 42.2184 75.5417 49.9964 75.5417Z" fill="#7DD2AA"/>
</svg>
