<svg width="44" height="44" viewBox="0 0 44 44" fill="none" xmlns="http://www.w3.org/2000/svg">
<path d="M9.68165 27.3916L9.15901 32.3642L14.1316 32.8869L13.7832 36.202L5.49548 35.3309L6.36655 27.0432L9.68165 27.3916ZM36.2022 30.179L35.3311 38.4668L27.0434 37.5957L27.3919 34.2806L32.3645 34.8032L32.8871 29.8306L36.2022 30.179ZM22.8523 13.6933C27.4294 14.1744 30.75 18.2749 30.2689 22.8521C29.7879 27.4292 25.6873 30.7498 21.1102 30.2687C16.533 29.7876 13.2125 25.6871 13.6935 21.1099C14.1746 16.5328 18.2752 13.2122 22.8523 13.6933ZM38.467 8.63109L37.5959 16.9188L34.2808 16.5704L34.8035 11.5978L29.8309 11.0751L30.1793 7.76002L38.467 8.63109ZM16.919 6.36631L16.5706 9.68141L11.598 9.15877L11.0754 14.1314L7.76026 13.7829L8.63133 5.49524L16.919 6.36631Z" fill="#008647"/>
</svg>
