<svg width="32" height="32" viewBox="0 0 32 32" fill="none" xmlns="http://www.w3.org/2000/svg">
<path opacity="0.4" d="M27.3335 13.5867H23.4802C20.3202 13.5867 17.7468 11.0133 17.7468 7.85332V3.99999C17.7468 3.26666 17.1468 2.66666 16.4135 2.66666H10.7602C6.6535 2.66666 3.3335 5.33332 3.3335 10.0933V21.9067C3.3335 26.6667 6.6535 29.3333 10.7602 29.3333H21.2402C25.3468 29.3333 28.6668 26.6667 28.6668 21.9067V14.92C28.6668 14.1867 28.0668 13.5867 27.3335 13.5867Z" fill="#008647"/>
<path d="M21.0666 2.94667C20.5199 2.4 19.5732 2.77333 19.5732 3.53333V8.18667C19.5732 10.1333 21.2266 11.7467 23.2399 11.7467C24.5066 11.76 26.2666 11.76 27.7732 11.76C28.5332 11.76 28.9332 10.8667 28.3999 10.3333C26.4799 8.4 23.0399 4.92 21.0666 2.94667Z" fill="#008647"/>
<path d="M18 18.3333H10C9.45333 18.3333 9 17.88 9 17.3333C9 16.7867 9.45333 16.3333 10 16.3333H18C18.5467 16.3333 19 16.7867 19 17.3333C19 17.88 18.5467 18.3333 18 18.3333Z" fill="#008647"/>
<path d="M15.3333 23.6667H10C9.45333 23.6667 9 23.2133 9 22.6667C9 22.12 9.45333 21.6667 10 21.6667H15.3333C15.88 21.6667 16.3333 22.12 16.3333 22.6667C16.3333 23.2133 15.88 23.6667 15.3333 23.6667Z" fill="#008647"/>
</svg>
