<svg width="32" height="32" viewBox="0 0 32 32" fill="none" xmlns="http://www.w3.org/2000/svg">
<path opacity="0.4" d="M29.3332 10.4133V18.5333L27.1598 16.6667C26.1198 15.7733 24.4398 15.7733 23.3998 16.6667L17.8532 21.4267C16.8132 22.32 15.1332 22.32 14.0932 21.4267L13.6398 21.0533C12.6932 20.2267 11.1865 20.1467 10.1198 20.8667L3.55984 25.2667L3.41317 25.3733C2.91984 24.3067 2.6665 23.04 2.6665 21.5867V10.4133C2.6665 5.55999 5.55984 2.66666 10.4132 2.66666H21.5865C26.4398 2.66666 29.3332 5.55999 29.3332 10.4133Z" fill="#008647"/>
<path d="M12 13.84C13.7526 13.84 15.1733 12.4193 15.1733 10.6667C15.1733 8.9141 13.7526 7.49335 12 7.49335C10.2474 7.49335 8.82666 8.9141 8.82666 10.6667C8.82666 12.4193 10.2474 13.84 12 13.84Z" fill="#008647"/>
<path d="M29.3336 18.5333V21.5867C29.3336 26.44 26.4402 29.3333 21.5869 29.3333H10.4136C7.01357 29.3333 4.56024 27.9067 3.41357 25.3733L3.56024 25.2667L10.1202 20.8667C11.1869 20.1467 12.6936 20.2267 13.6402 21.0533L14.0936 21.4267C15.1336 22.32 16.8136 22.32 17.8536 21.4267L23.4002 16.6667C24.4402 15.7733 26.1202 15.7733 27.1602 16.6667L29.3336 18.5333Z" fill="#008647"/>
</svg>
