<svg width="44" height="44" viewBox="0 0 44 44" fill="none" xmlns="http://www.w3.org/2000/svg">
<g clip-path="url(#clip0_945_1385)">
<path fill-rule="evenodd" clip-rule="evenodd" d="M19.5616 11.12C19.7387 10.8513 19.9858 10.636 20.2763 10.4975C20.5667 10.359 20.8895 10.3024 21.2097 10.3339L24.6918 10.6921C25.0108 10.7271 25.3143 10.8483 25.5697 11.0428C25.825 11.2373 26.0226 11.4977 26.1411 11.796L27.2905 14.7206L29.7728 14.727C30.0905 14.7295 30.4016 14.8177 30.6734 14.9822C30.9452 15.1467 31.1676 15.3815 31.3172 15.6618L32.8383 18.5454C33.0016 18.8558 33.0678 19.2082 33.0284 19.5568C32.9889 19.9054 32.8456 20.234 32.6171 20.5002L31.1634 22.2L32.3823 24.1402C32.7613 24.7422 32.737 25.5164 32.3183 26.0954L30.4145 28.7329C30.2256 28.9914 29.97 29.1937 29.6751 29.3181C29.3801 29.4426 29.0569 29.4846 28.7399 29.4396L26.1471 29.0522L24.2559 32.196C24.0852 32.4752 23.8403 32.7015 23.5484 32.8497C23.2566 32.9979 22.9293 33.0621 22.6032 33.0351L19.0102 32.7208C18.6849 32.6901 18.3745 32.5698 18.1135 32.3733C17.8525 32.1768 17.651 31.9118 17.5316 31.6077L16.2939 28.3909L13.4825 28.3992C13.1586 28.3981 12.8412 28.3079 12.5651 28.1386C12.289 27.9693 12.0648 27.7273 11.9169 27.4391L10.402 24.4457C10.2414 24.128 10.1814 23.7688 10.2302 23.4162C10.279 23.0635 10.4342 22.7341 10.6751 22.472L12.4506 20.536L11.3254 18.634C11.147 18.332 11.0636 17.9833 11.0859 17.6332C11.1081 17.2831 11.2351 16.9478 11.4503 16.6708L13.449 14.0952C13.6447 13.8456 13.9039 13.6533 14.1995 13.5385C14.4951 13.4236 14.8162 13.3905 15.129 13.4425L17.7558 13.8998L19.5616 11.12ZM21.4097 12.8677L19.5843 15.6793C19.3963 15.9654 19.1291 16.1908 18.8153 16.3279C18.5016 16.465 18.1547 16.5079 17.817 16.4515L15.1473 15.9871L13.7369 17.8044L14.8854 19.7452C15.0765 20.0681 15.1588 20.4438 15.1201 20.8169C15.0814 21.1901 14.9238 21.5409 14.6706 21.8177L12.866 23.7812L13.9385 25.9028L16.8036 25.8925C17.1587 25.8906 17.5059 25.9969 17.7991 26.197C18.0924 26.3972 18.3178 26.6818 18.4455 27.0132L19.6963 30.2712L22.3528 30.5037L24.263 27.3347C24.443 27.0407 24.7051 26.8057 25.017 26.6588C25.3289 26.5118 25.677 26.4594 26.0184 26.5079L28.6543 26.8991L29.9946 25.0422L28.7493 23.0595C28.5513 22.7434 28.4594 22.3723 28.4872 22.0003C28.5149 21.6283 28.6607 21.275 28.9035 20.9917L30.3899 19.2614L29.3165 17.2267L26.7742 17.2185C26.4228 17.2177 26.0798 17.1111 25.7898 16.9127C25.4998 16.7142 25.2763 16.4331 25.1483 16.1058L23.9797 13.1327L21.4097 12.8677Z" fill="#008647"/>
<path d="M35.4793 27.5598C34.1999 30.5813 31.9651 33.0999 29.1173 34.7298C26.2696 36.3596 22.9659 37.0107 19.7127 36.5833C16.4595 36.1559 13.4361 34.6736 11.1059 32.3635C8.77577 30.0534 7.26734 27.043 6.8118 23.7936L9.68648 23.483L4.79394 17.4469L1.34847 24.3964L4.37823 24.0726C4.88238 27.8843 6.62786 31.424 9.34494 34.1445C12.062 36.865 15.5994 38.615 19.4106 39.124C23.2217 39.6329 27.0944 38.8726 30.4301 36.9605C33.7659 35.0483 36.3791 32.0908 37.8659 28.5449L35.4793 27.5598ZM38.9933 19.3682C38.4887 15.5566 36.7429 12.0172 34.0255 9.297C31.3082 6.57681 27.7706 4.82723 23.9595 4.31863C20.1484 3.81003 16.2758 4.57072 12.9403 6.48315C9.60472 8.39558 6.99183 11.3533 5.50536 14.8992L7.80558 15.8768C9.08465 12.8552 11.3192 10.3364 14.1667 8.70626C17.0143 7.07615 20.3178 6.42469 23.571 6.8517C26.8243 7.27871 29.8478 8.76065 32.1782 11.0704C34.5086 13.3802 36.0174 16.3903 36.4734 19.6397L33.5984 19.9536L38.4921 25.9764L41.9699 19.0398L38.9933 19.3682Z" fill="#008647"/>
<path fill-rule="evenodd" clip-rule="evenodd" d="M21.7759 20.4218C21.4457 20.3929 21.1175 20.4964 20.8635 20.7095C20.6095 20.9226 20.4506 21.2279 20.4217 21.5581C20.3928 21.8884 20.4963 22.2166 20.7094 22.4705C20.9225 22.7245 21.2278 22.8834 21.558 22.9123C21.8883 22.9412 22.2165 22.8377 22.4705 22.6246C22.7244 22.4115 22.8833 22.1063 22.9122 21.776C22.9411 21.4457 22.8376 21.1175 22.6245 20.8636C22.4114 20.6096 22.1062 20.4507 21.7759 20.4218ZM17.9312 21.3402C18.0179 20.3494 18.4946 19.4337 19.2565 18.7944C20.0184 18.1551 21.003 17.8446 21.9938 17.9313C22.9846 18.018 23.9004 18.4947 24.5396 19.2566C25.1789 20.0185 25.4894 21.0031 25.4027 21.9939C25.316 22.9847 24.8393 23.9004 24.0774 24.5397C23.3156 25.179 22.3309 25.4895 21.3401 25.4028C20.3494 25.3161 19.4336 24.8394 18.7943 24.0775C18.155 23.3156 17.8446 22.331 17.9312 21.3402Z" fill="#008647"/>
</g>
<defs>
<clipPath id="clip0_945_1385">
<rect width="40" height="40" fill="white" transform="translate(3.48623) rotate(5)"/>
</clipPath>
</defs>
</svg>
