<svg width="1094" height="278" viewBox="0 0 1094 278" fill="none" xmlns="http://www.w3.org/2000/svg">
<g filter="url(#filter0_d_68_1707)">
<rect x="23" y="11" width="96" height="96" rx="48" fill="white"/>
<rect x="23" y="11" width="96" height="96" rx="48" fill="white"/>
<rect x="23.25" y="11.25" width="95.5" height="95.5" rx="47.75" stroke="#CAEDDD" stroke-width="0.5"/>
<path opacity="0.4" d="M88.7998 51.7999C87.8248 51.7999 87.0498 52.5749 87.0498 53.5499V57.4999C87.0498 66.3499 79.8498 73.5499 70.9998 73.5499C62.1498 73.5499 54.9498 66.3499 54.9498 57.4999V53.5249C54.9498 52.5499 54.1748 51.7749 53.1998 51.7749C52.2248 51.7749 51.4498 52.5499 51.4498 53.5249V57.4749C51.4498 67.6499 59.2748 76.0249 69.2498 76.9249V82.2499C69.2498 83.2249 70.0248 83.9999 70.9998 83.9999C71.9748 83.9999 72.7498 83.2249 72.7498 82.2499V76.9249C82.6998 76.0499 90.5498 67.6499 90.5498 57.4749V53.5249C90.5248 52.5749 89.7498 51.7999 88.7998 51.7999Z" fill="#33B97A"/>
<path d="M71.0001 34C64.9001 34 59.9501 38.95 59.9501 45.05V57.85C59.9501 63.95 64.9001 68.9 71.0001 68.9C77.1001 68.9 82.0501 63.95 82.0501 57.85V45.05C82.0501 38.95 77.1001 34 71.0001 34ZM74.2751 51.375C74.1001 52.025 73.5251 52.45 72.8751 52.45C72.7501 52.45 72.6251 52.425 72.5001 52.4C71.5251 52.125 70.5001 52.125 69.5251 52.4C68.7251 52.625 67.9501 52.15 67.7501 51.375C67.5251 50.6 68.0001 49.8 68.7751 49.6C70.2501 49.2 71.8001 49.2 73.2751 49.6C74.0251 49.8 74.4751 50.6 74.2751 51.375ZM75.6001 46.525C75.3751 47.125 74.8251 47.475 74.2251 47.475C74.0501 47.475 73.9001 47.45 73.7251 47.4C71.9751 46.75 70.0251 46.75 68.2751 47.4C67.5251 47.675 66.6751 47.275 66.4001 46.525C66.1251 45.775 66.5251 44.925 67.2751 44.675C69.6751 43.8 72.3251 43.8 74.7251 44.675C75.4751 44.95 75.8751 45.775 75.6001 46.525Z" fill="#33B97A"/>
</g>
<g filter="url(#filter1_d_68_1707)">
<rect x="144" y="147" width="96" height="96" rx="48" fill="white"/>
<rect x="144.25" y="147.25" width="95.5" height="95.5" rx="47.75" stroke="#CAEDDD" stroke-width="0.5"/>
<path opacity="0.4" d="M217 184.525V199.75L212.925 196.25C210.975 194.575 207.825 194.575 205.875 196.25L195.475 205.175C193.525 206.85 190.375 206.85 188.425 205.175L187.575 204.475C185.8 202.925 182.975 202.775 180.975 204.125L168.675 212.375L168.4 212.575C167.475 210.575 167 208.2 167 205.475V184.525C167 175.425 172.425 170 181.525 170H202.475C211.575 170 217 175.425 217 184.525Z" fill="#33B97A"/>
<path d="M184.5 190.95C187.786 190.95 190.45 188.286 190.45 185C190.45 181.714 187.786 179.05 184.5 179.05C181.214 179.05 178.55 181.714 178.55 185C178.55 188.286 181.214 190.95 184.5 190.95Z" fill="#33B97A"/>
<path d="M217 199.75V205.475C217 214.575 211.575 220 202.475 220H181.525C175.15 220 170.55 217.325 168.4 212.575L168.675 212.375L180.975 204.125C182.975 202.775 185.8 202.925 187.575 204.475L188.425 205.175C190.375 206.85 193.525 206.85 195.475 205.175L205.875 196.25C207.825 194.575 210.975 194.575 212.925 196.25L217 199.75Z" fill="#33B97A"/>
</g>
<g filter="url(#filter2_d_68_1707)">
<rect x="112" y="141" width="44" height="44" rx="22" fill="white"/>
<rect x="112.115" y="141.115" width="43.7708" height="43.7708" rx="21.8854" stroke="#CAEDDD" stroke-width="0.229167"/>
<path opacity="0.4" d="M143.74 160.926H140.428C137.713 160.926 135.501 158.715 135.501 155.999V152.688C135.501 152.057 134.985 151.542 134.355 151.542H129.497C125.968 151.542 123.115 153.833 123.115 157.924V168.076C123.115 172.167 125.968 174.458 129.497 174.458H138.503C142.032 174.458 144.885 172.167 144.885 168.076V162.072C144.885 161.442 144.37 160.926 143.74 160.926Z" fill="#33B97A"/>
<path d="M138.354 151.782C137.884 151.313 137.071 151.633 137.071 152.287V156.285C137.071 157.958 138.492 159.345 140.222 159.345C141.31 159.356 142.823 159.356 144.118 159.356C144.771 159.356 145.115 158.589 144.656 158.13C143.006 156.469 140.05 153.478 138.354 151.782Z" fill="#33B97A"/>
<path d="M135.719 165.005H128.844C128.374 165.005 127.984 164.616 127.984 164.146C127.984 163.676 128.374 163.286 128.844 163.286H135.719C136.189 163.286 136.578 163.676 136.578 164.146C136.578 164.616 136.189 165.005 135.719 165.005Z" fill="#33B97A"/>
<path d="M133.427 169.589H128.844C128.374 169.589 127.984 169.199 127.984 168.729C127.984 168.259 128.374 167.87 128.844 167.87H133.427C133.897 167.87 134.286 168.259 134.286 168.729C134.286 169.199 133.897 169.589 133.427 169.589Z" fill="#33B97A"/>
</g>
<g filter="url(#filter3_d_68_1707)">
<rect x="27" y="135" width="72" height="72" rx="36" fill="white"/>
<rect x="27.25" y="135.25" width="71.5" height="71.5" rx="35.75" stroke="#CAEDDD" stroke-width="0.5"/>
<path opacity="0.4" d="M76.5 186H49.5C48.885 186 48.375 185.49 48.375 184.875C48.375 184.26 48.885 183.75 49.5 183.75H76.5C77.115 183.75 77.625 184.26 77.625 184.875C77.625 185.49 77.115 186 76.5 186Z" fill="#33B97A"/>
<path opacity="0.4" d="M73.53 158.22C70.62 155.31 67.77 155.235 64.785 158.22L62.97 160.035C62.82 160.185 62.76 160.425 62.82 160.635C63.96 164.61 67.14 167.79 71.115 168.93C71.175 168.945 71.235 168.96 71.295 168.96C71.46 168.96 71.61 168.9 71.73 168.78L73.53 166.965C75.015 165.495 75.735 164.07 75.735 162.63C75.75 161.145 75.03 159.705 73.53 158.22Z" fill="#33B97A"/>
<path d="M68.415 170.295C67.98 170.085 67.56 169.875 67.155 169.635C66.825 169.44 66.51 169.23 66.195 169.005C65.94 168.84 65.64 168.6 65.355 168.36C65.325 168.345 65.22 168.255 65.1 168.135C64.605 167.715 64.05 167.175 63.555 166.575C63.51 166.545 63.435 166.44 63.33 166.305C63.18 166.125 62.925 165.825 62.7 165.48C62.52 165.255 62.31 164.925 62.115 164.595C61.875 164.19 61.665 163.785 61.455 163.365C61.245 162.915 61.08 162.48 60.93 162.075L51.51 171.495C51.315 171.69 51.135 172.065 51.09 172.32L50.28 178.065C50.13 179.085 50.415 180.045 51.045 180.69C51.585 181.215 52.335 181.5 53.145 181.5C53.325 181.5 53.505 181.485 53.685 181.455L59.445 180.645C59.715 180.6 60.09 180.42 60.27 180.225L69.69 170.805C69.27 170.655 68.865 170.49 68.415 170.295Z" fill="#33B97A"/>
</g>
<path d="M892.012 103L852.012 79.906V126.094L892.012 103ZM720 103V107H831.461V103V99H720V103ZM831.461 103V107H868.227V103V99H831.461V103Z" fill="url(#paint0_linear_68_1707)"/>
<path d="M836 127L831 124.113V129.887L836 127ZM729 127V127.5H731.698V127V126.5H729V127ZM737.094 127V127.5H742.49V127V126.5H737.094V127ZM747.886 127V127.5H753.283V127V126.5H747.886V127ZM758.679 127V127.5H764.075V127V126.5H758.679V127ZM769.471 127V127.5H772.169V127V126.5H769.471V127ZM772.169 127V127.5H774.752V127V126.5H772.169V127ZM779.917 127V127.5H785.083V127V126.5H779.917V127ZM790.248 127V127.5H795.414V127V126.5H790.248V127ZM800.579 127V127.5H803.162V127V126.5H800.579V127ZM803.162 127V127.5H805.899V127V126.5H803.162V127ZM811.372 127V127.5L816.845 127.5V127V126.5L811.372 126.5V127ZM822.318 127V127.5H827.791V127V126.5H822.318V127Z" fill="#D2DDF5"/>
<path d="M498 111C500.209 111 502 109.209 502 107C502 104.791 500.209 103 498 103V107V111ZM187 26V30H273.94V26V22H187V26ZM398.279 107V111H498V107V103H398.279V107ZM336.11 66.5L332.451 68.1165C343.967 94.1838 369.781 111 398.279 111V107V103C372.949 103 350.005 88.0532 339.768 64.8835L336.11 66.5ZM273.94 26V30C299.27 30 322.214 44.9468 332.451 68.1165L336.11 66.5L339.768 64.8835C328.252 38.8162 302.438 22 273.94 22V26Z" fill="url(#paint1_linear_68_1707)"/>
<path d="M239.5 81H286.566C293.895 81 300.932 83.8737 306.166 89.004L340.334 122.496C345.568 127.626 352.605 130.5 359.934 130.5H502" stroke="#D2DDF5" stroke-dasharray="6 6"/>
<path d="M268 173H297.155C305.266 173 312.979 169.483 318.297 163.358L349 128" stroke="#D2DDF5" stroke-dasharray="6 6"/>
<path d="M498.5 111.5C498.776 111.5 499 111.276 499 111C499 110.724 498.776 110.5 498.5 110.5V111V111.5ZM157 30V30.5H271.19V30V29.5H157V30ZM396.444 111V111.5H498.5V111V110.5H396.444V111ZM333.817 70.5L333.361 70.7051C344.529 95.5322 369.221 111.5 396.444 111.5V111V110.5C369.615 110.5 345.28 94.763 334.273 70.2949L333.817 70.5ZM271.19 30V30.5C298.02 30.5 322.355 46.237 333.361 70.7051L333.817 70.5L334.273 70.2949C323.105 45.4678 298.414 29.5 271.19 29.5V30Z" fill="url(#paint2_linear_68_1707)"/>
<path d="M499 143C501.209 143 503 144.791 503 147C503 149.209 501.209 151 499 151V147V143ZM275.87 228V224H327.527V228V232H275.87V228ZM438.174 147V143H499V147V151H438.174V147ZM382.85 187.5L379.037 186.291C387.208 160.515 411.133 143 438.174 143V147V151C414.62 151 393.78 166.256 386.663 188.709L382.85 187.5ZM327.527 228V224C351.08 224 371.92 208.744 379.037 186.291L382.85 187.5L386.663 188.709C378.493 214.485 354.567 232 327.527 232V228Z" fill="url(#paint3_linear_68_1707)"/>
<path d="M499 143C501.209 143 503 144.791 503 147C503 149.209 501.209 151 499 151V147V143ZM275.87 228V224H327.527V228V232H275.87V228ZM438.174 147V143H499V147V151H438.174V147ZM382.85 187.5L379.037 186.291C387.208 160.515 411.133 143 438.174 143V147V151C414.62 151 393.78 166.256 386.663 188.709L382.85 187.5ZM327.527 228V224C351.08 224 371.92 208.744 379.037 186.291L382.85 187.5L386.663 188.709C378.493 214.485 354.567 232 327.527 232V228Z" fill="url(#paint4_linear_68_1707)"/>
<path d="M498.5 142.5C498.776 142.5 499 142.724 499 143C499 143.276 498.776 143.5 498.5 143.5V143V142.5ZM273 224V223.5H325.527V224V224.5H273V224ZM436.497 143V142.5H498.5V143V143.5H436.497V143ZM381.012 183.5L380.536 183.348C388.324 159.012 410.946 142.5 436.497 142.5V143V143.5C411.381 143.5 389.144 159.731 381.488 183.652L381.012 183.5ZM325.527 224V223.5C350.643 223.5 372.88 207.269 380.536 183.348L381.012 183.5L381.488 183.652C373.7 207.988 351.078 224.5 325.527 224.5V224Z" fill="url(#paint5_linear_68_1707)"/>
<path d="M1012.4 75.1911L1045.44 96.1046L1039.27 100.588L1008.73 81.258L978.492 100.581L972.372 96.0834L1005.05 75.2088C1006.15 74.5029 1007.42 74.126 1008.72 74.1228C1010.02 74.1197 1011.3 74.4905 1012.4 75.1911Z" fill="#0181DA"/>
<path fill-rule="evenodd" clip-rule="evenodd" d="M948.207 95.0669C944.106 92.0565 944.304 85.685 948.583 82.9544L1005.05 46.8719C1006.15 46.166 1007.42 45.789 1008.72 45.7859C1010.02 45.7828 1011.3 46.1536 1012.4 46.8542L1069.39 82.9331C1073.7 85.6602 1073.9 92.0706 1069.76 95.0811L1012.78 136.554C1010.35 138.325 1007.11 138.314 1004.68 136.536L948.207 95.0669ZM952.397 88.9186L1008.73 52.9246L1065.6 88.9221L1065.62 88.9327L1065.62 88.9434C1065.65 88.9987 1065.67 89.0611 1065.67 89.124C1065.67 89.191 1065.66 89.2585 1065.63 89.3188L1065.62 89.3365L1065.6 89.3577L1008.74 130.728L952.401 89.3577L952.376 89.3365L952.365 89.3152C952.337 89.2557 952.326 89.1895 952.333 89.124C952.331 89.0611 952.346 88.9987 952.376 88.9434L952.379 88.9327L952.397 88.9186Z" fill="#0181DA"/>
<path d="M953.173 108.352L959.293 112.85L952.397 117.252L952.379 117.266L952.376 117.277C952.346 117.331 952.332 117.392 952.333 117.454C952.325 117.526 952.338 117.599 952.372 117.663L952.376 117.67L952.401 117.691L1008.74 159.061L1065.6 117.691L1065.62 117.67L1065.63 117.663L1065.63 117.652C1065.66 117.592 1065.67 117.524 1065.67 117.457C1065.67 117.394 1065.65 117.332 1065.62 117.277L1065.62 117.266L1065.6 117.255L1058.59 112.814L1064.75 108.334L1069.39 111.27C1073.7 113.997 1073.9 120.408 1069.76 123.418L1012.78 164.887C1010.35 166.658 1007.11 166.648 1004.68 164.87L948.207 123.397C944.106 120.386 944.304 114.018 948.583 111.284L953.173 108.352Z" fill="#0181DA"/>
<path d="M986.287 220V208.08H990.191C991.428 208.08 992.5 208.331 993.407 208.832C994.324 209.323 995.033 210.016 995.535 210.912C996.036 211.808 996.287 212.848 996.287 214.032C996.287 215.205 996.036 216.245 995.535 217.152C995.033 218.048 994.324 218.747 993.407 219.248C992.5 219.749 991.428 220 990.191 220H986.287ZM988.175 218.32H990.223C991.065 218.32 991.796 218.144 992.415 217.792C993.044 217.44 993.529 216.944 993.871 216.304C994.212 215.664 994.383 214.907 994.383 214.032C994.383 213.157 994.207 212.405 993.855 211.776C993.513 211.136 993.033 210.64 992.415 210.288C991.796 209.936 991.065 209.76 990.223 209.76H988.175V218.32ZM998.146 220V208.08H1000.03V213.328H1005.55V208.08H1007.43V220H1005.55V215.008H1000.03V220H998.146ZM1009.9 220V208.08H1011.78V220H1009.9ZM1018.43 220.192C1017.68 220.192 1016.99 220.053 1016.35 219.776C1015.71 219.488 1015.17 219.099 1014.72 218.608C1014.27 218.117 1013.94 217.552 1013.73 216.912L1015.33 216.24C1015.62 216.976 1016.04 217.541 1016.59 217.936C1017.15 218.331 1017.79 218.528 1018.51 218.528C1018.94 218.528 1019.31 218.464 1019.63 218.336C1019.95 218.197 1020.2 218.005 1020.37 217.76C1020.55 217.515 1020.64 217.232 1020.64 216.912C1020.64 216.475 1020.52 216.128 1020.27 215.872C1020.03 215.616 1019.66 215.413 1019.18 215.264L1016.94 214.56C1016.05 214.283 1015.36 213.861 1014.9 213.296C1014.43 212.72 1014.19 212.048 1014.19 211.28C1014.19 210.608 1014.36 210.021 1014.69 209.52C1015.02 209.008 1015.47 208.608 1016.05 208.32C1016.63 208.032 1017.3 207.888 1018.05 207.888C1018.76 207.888 1019.41 208.016 1020 208.272C1020.59 208.517 1021.09 208.859 1021.5 209.296C1021.93 209.733 1022.24 210.24 1022.43 210.816L1020.86 211.504C1020.63 210.875 1020.26 210.389 1019.76 210.048C1019.27 209.707 1018.7 209.536 1018.05 209.536C1017.65 209.536 1017.31 209.605 1017.01 209.744C1016.71 209.872 1016.47 210.064 1016.3 210.32C1016.14 210.565 1016.06 210.853 1016.06 211.184C1016.06 211.568 1016.19 211.909 1016.43 212.208C1016.68 212.507 1017.05 212.731 1017.55 212.88L1019.63 213.536C1020.58 213.824 1021.3 214.24 1021.78 214.784C1022.26 215.317 1022.5 215.984 1022.5 216.784C1022.5 217.445 1022.32 218.032 1021.97 218.544C1021.63 219.056 1021.15 219.461 1020.54 219.76C1019.94 220.048 1019.23 220.192 1018.43 220.192ZM1024.18 220V218.64L1027.45 215.152C1028.09 214.469 1028.59 213.92 1028.95 213.504C1029.32 213.077 1029.59 212.704 1029.75 212.384C1029.92 212.064 1030.01 211.728 1030.01 211.376C1030.01 210.8 1029.83 210.357 1029.48 210.048C1029.13 209.728 1028.67 209.568 1028.12 209.568C1027.54 209.568 1027.05 209.733 1026.63 210.064C1026.21 210.384 1025.93 210.853 1025.77 211.472L1024.1 210.992C1024.23 210.363 1024.49 209.819 1024.87 209.36C1025.25 208.891 1025.72 208.528 1026.28 208.272C1026.84 208.016 1027.45 207.888 1028.1 207.888C1028.86 207.888 1029.52 208.032 1030.09 208.32C1030.65 208.597 1031.09 208.987 1031.4 209.488C1031.72 209.989 1031.88 210.571 1031.88 211.232C1031.88 211.669 1031.79 212.096 1031.62 212.512C1031.46 212.917 1031.21 213.349 1030.87 213.808C1030.53 214.256 1030.09 214.763 1029.56 215.328L1026.68 218.4H1032.1V220H1024.18Z" fill="#A4B1CA"/>
<path d="M676.521 59.9584C675.112 59.9584 673.761 59.3987 672.764 58.4024C671.768 57.4061 671.208 56.0549 671.208 54.6459C671.208 53.237 671.768 51.8857 672.764 50.8894C673.761 49.8931 675.112 49.3334 676.521 49.3334C677.93 49.3334 679.281 49.8931 680.277 50.8894C681.274 51.8857 681.833 53.237 681.833 54.6459C681.833 56.0549 681.274 57.4061 680.277 58.4024C679.281 59.3987 677.93 59.9584 676.521 59.9584ZM676.521 59.9584V86.5209C676.521 91.4651 676.521 93.9372 675.912 95.9417C675.236 98.1718 674.021 100.201 672.374 101.849C670.727 103.497 668.699 104.714 666.47 105.391C664.458 106 661.986 106 657.042 106M545.479 152.042C546.888 152.042 548.239 152.601 549.236 153.598C550.232 154.594 550.792 155.945 550.792 157.354C550.792 158.763 550.232 160.114 549.236 161.111C548.239 162.107 546.888 162.667 545.479 162.667C544.07 162.667 542.719 162.107 541.723 161.111C540.726 160.114 540.167 158.763 540.167 157.354C540.167 155.945 540.726 154.594 541.723 153.598C542.719 152.601 544.07 152.042 545.479 152.042ZM545.479 152.042V125.479C545.479 120.535 545.479 118.063 546.088 116.058C546.764 113.828 547.979 111.799 549.626 110.151C551.273 108.503 553.301 107.286 555.53 106.609C557.542 106 560.014 106 564.958 106M564.958 40.4792C564.958 41.8882 564.399 43.2395 563.402 44.2358C562.406 45.232 561.055 45.7917 559.646 45.7917C558.237 45.7917 556.886 45.232 555.889 44.2358C554.893 43.2395 554.333 41.8882 554.333 40.4792C554.333 39.0703 554.893 37.719 555.889 36.7227C556.886 35.7265 558.237 35.1667 559.646 35.1667C561.055 35.1667 562.406 35.7265 563.402 36.7227C564.399 37.719 564.958 39.0703 564.958 40.4792ZM564.958 40.4792H591.521C596.465 40.4792 598.937 40.4792 600.942 41.0884C603.172 41.7645 605.202 42.9806 606.85 44.6289C608.499 46.2772 609.715 48.3067 610.391 50.5376C611 52.5422 611 55.0142 611 59.9584M657.042 171.521C657.042 170.112 657.601 168.761 658.598 167.764C659.594 166.768 660.945 166.208 662.354 166.208C663.763 166.208 665.114 166.768 666.111 167.764C667.107 168.761 667.667 170.112 667.667 171.521C667.667 172.93 667.107 174.281 666.111 175.277C665.114 176.274 663.763 176.833 662.354 176.833C660.945 176.833 659.594 176.274 658.598 175.277C657.601 174.281 657.042 172.93 657.042 171.521ZM657.042 171.521H630.479C625.535 171.521 623.063 171.521 621.058 170.912C618.828 170.236 616.799 169.021 615.151 167.374C613.503 165.727 612.286 163.699 611.609 161.47C611 159.458 611 156.986 611 152.042" stroke="#00A859" stroke-width="6" stroke-linejoin="round"/>
<path d="M565.305 105.653C565.305 83.9497 565.305 73.098 572.049 66.3547C578.792 59.6113 589.644 59.6113 611.347 59.6113C633.05 59.6113 643.902 59.6113 650.645 66.3547C657.389 73.098 657.389 83.9497 657.389 105.653C657.389 127.356 657.389 138.208 650.645 144.951C643.902 151.695 633.05 151.695 611.347 151.695C589.644 151.695 578.792 151.695 572.049 144.951C565.305 138.208 565.305 127.356 565.305 105.653Z" stroke="#00A859" stroke-width="6" stroke-linejoin="round"/>
<path d="M614.535 123.708L604.193 91.6846C603.834 90.6741 603.166 89.8023 602.284 89.1932C601.401 88.5841 600.349 88.2687 599.277 88.2917C598.206 88.2702 597.156 88.5863 596.275 89.1953C595.394 89.8043 594.727 90.6753 594.368 91.6846L584.027 123.708M632.243 88.2917V123.708M587.83 113.083H610.724" stroke="#00A859" stroke-width="6" stroke-linecap="round" stroke-linejoin="round"/>
<path d="M533.551 220L537.823 208.08H539.679L543.951 220H542.271L541.295 217.2H536.207L535.231 220H533.551ZM536.703 215.76H540.799L538.527 209.216H538.975L536.703 215.76ZM545.277 220V211.376H546.733V212.96L546.573 212.736C546.776 212.245 547.085 211.883 547.501 211.648C547.917 211.403 548.424 211.28 549.021 211.28H549.549V212.688H548.797C548.189 212.688 547.698 212.88 547.325 213.264C546.952 213.637 546.765 214.171 546.765 214.864V220H545.277ZM554.453 220.096C553.61 220.096 552.96 219.856 552.501 219.376C552.053 218.896 551.829 218.219 551.829 217.344V212.8H550.261V211.376H550.581C550.965 211.376 551.269 211.259 551.493 211.024C551.717 210.789 551.829 210.48 551.829 210.096V209.392H553.317V211.376H555.253V212.8H553.317V217.296C553.317 217.584 553.36 217.835 553.445 218.048C553.541 218.261 553.696 218.432 553.909 218.56C554.122 218.677 554.405 218.736 554.757 218.736C554.832 218.736 554.922 218.731 555.029 218.72C555.146 218.709 555.253 218.699 555.349 218.688V220C555.21 220.032 555.056 220.053 554.885 220.064C554.714 220.085 554.57 220.096 554.453 220.096ZM557.293 220V211.376H558.781V220H557.293ZM557.293 210V208.08H558.781V210H557.293ZM562.002 220V212.8H560.354V211.376H562.002V210.768C562.002 210.149 562.135 209.627 562.402 209.2C562.679 208.773 563.042 208.448 563.49 208.224C563.948 208 564.455 207.888 565.01 207.888C565.127 207.888 565.255 207.899 565.394 207.92C565.543 207.931 565.666 207.947 565.762 207.968V209.296C565.676 209.275 565.575 209.264 565.458 209.264C565.34 209.253 565.25 209.248 565.186 209.248C564.695 209.248 564.29 209.365 563.97 209.6C563.66 209.835 563.506 210.224 563.506 210.768V211.376H567.986V212.8H563.506V220H562.002ZM567.058 220V211.376H568.562V220H567.058ZM574.621 220.192C573.778 220.192 573.026 219.995 572.365 219.6C571.714 219.205 571.202 218.667 570.829 217.984C570.455 217.301 570.269 216.533 570.269 215.68C570.269 214.816 570.455 214.048 570.829 213.376C571.202 212.704 571.714 212.171 572.365 211.776C573.026 211.381 573.778 211.184 574.621 211.184C575.186 211.184 575.714 211.285 576.205 211.488C576.695 211.691 577.127 211.963 577.501 212.304C577.874 212.645 578.146 213.045 578.317 213.504L576.989 214.144C576.786 213.696 576.477 213.333 576.061 213.056C575.645 212.768 575.165 212.624 574.621 212.624C574.098 212.624 573.623 212.757 573.197 213.024C572.781 213.291 572.45 213.653 572.205 214.112C571.959 214.571 571.837 215.099 571.837 215.696C571.837 216.272 571.959 216.795 572.205 217.264C572.45 217.723 572.781 218.085 573.197 218.352C573.623 218.619 574.098 218.752 574.621 218.752C575.165 218.752 575.645 218.613 576.061 218.336C576.477 218.048 576.786 217.669 576.989 217.2L578.317 217.872C578.146 218.32 577.874 218.72 577.501 219.072C577.127 219.413 576.695 219.685 576.205 219.888C575.714 220.091 575.186 220.192 574.621 220.192ZM580.261 220V211.376H581.749V220H580.261ZM580.261 210V208.08H581.749V210H580.261ZM586.586 220.192C586.021 220.192 585.52 220.091 585.082 219.888C584.656 219.675 584.32 219.387 584.074 219.024C583.829 218.651 583.706 218.224 583.706 217.744C583.706 217.285 583.802 216.875 583.994 216.512C584.197 216.139 584.506 215.824 584.922 215.568C585.349 215.312 585.882 215.131 586.522 215.024L589.722 214.496V215.744L586.858 216.224C586.304 216.32 585.898 216.496 585.642 216.752C585.397 217.008 585.274 217.323 585.274 217.696C585.274 218.048 585.413 218.341 585.69 218.576C585.978 218.811 586.336 218.928 586.762 218.928C587.306 218.928 587.776 218.816 588.17 218.592C588.576 218.357 588.89 218.043 589.114 217.648C589.349 217.253 589.466 216.816 589.466 216.336V214.144C589.466 213.675 589.29 213.296 588.938 213.008C588.597 212.709 588.144 212.56 587.578 212.56C587.088 212.56 586.65 212.688 586.266 212.944C585.893 213.189 585.616 213.52 585.434 213.936L584.138 213.264C584.298 212.869 584.554 212.517 584.906 212.208C585.258 211.888 585.669 211.637 586.138 211.456C586.608 211.275 587.098 211.184 587.61 211.184C588.272 211.184 588.853 211.312 589.354 211.568C589.856 211.813 590.245 212.16 590.522 212.608C590.81 213.045 590.954 213.557 590.954 214.144V220H589.498V218.368L589.77 218.464C589.589 218.805 589.344 219.104 589.034 219.36C588.725 219.616 588.362 219.819 587.946 219.968C587.53 220.117 587.077 220.192 586.586 220.192ZM593.261 220V207.888H594.749V220H593.261ZM600 220V208.08H601.568V220H600ZM604.043 220V211.376H605.499V213.056L605.259 212.912C605.472 212.368 605.813 211.947 606.283 211.648C606.763 211.339 607.323 211.184 607.963 211.184C608.581 211.184 609.131 211.323 609.611 211.6C610.101 211.877 610.485 212.261 610.763 212.752C611.051 213.243 611.195 213.797 611.195 214.416V220H609.691V214.896C609.691 214.416 609.605 214.011 609.435 213.68C609.264 213.349 609.019 213.093 608.699 212.912C608.389 212.72 608.032 212.624 607.627 212.624C607.221 212.624 606.859 212.72 606.539 212.912C606.229 213.093 605.984 213.355 605.803 213.696C605.621 214.027 605.531 214.427 605.531 214.896V220H604.043ZM616.828 220.096C615.985 220.096 615.335 219.856 614.876 219.376C614.428 218.896 614.204 218.219 614.204 217.344V212.8H612.636V211.376H612.956C613.34 211.376 613.644 211.259 613.868 211.024C614.092 210.789 614.204 210.48 614.204 210.096V209.392H615.692V211.376H617.628V212.8H615.692V217.296C615.692 217.584 615.735 217.835 615.82 218.048C615.916 218.261 616.071 218.432 616.284 218.56C616.497 218.677 616.78 218.736 617.132 218.736C617.207 218.736 617.297 218.731 617.404 218.72C617.521 218.709 617.628 218.699 617.724 218.688V220C617.585 220.032 617.431 220.053 617.26 220.064C617.089 220.085 616.945 220.096 616.828 220.096ZM623.401 220.192C622.569 220.192 621.828 219.995 621.177 219.6C620.527 219.205 620.015 218.667 619.641 217.984C619.268 217.291 619.081 216.517 619.081 215.664C619.081 214.8 619.263 214.032 619.625 213.36C619.999 212.688 620.5 212.16 621.129 211.776C621.769 211.381 622.484 211.184 623.273 211.184C623.913 211.184 624.479 211.301 624.969 211.536C625.471 211.76 625.892 212.069 626.233 212.464C626.585 212.848 626.852 213.291 627.033 213.792C627.225 214.283 627.321 214.795 627.321 215.328C627.321 215.445 627.311 215.579 627.289 215.728C627.279 215.867 627.263 216 627.241 216.128H620.169V214.848H626.377L625.673 215.424C625.769 214.869 625.716 214.373 625.513 213.936C625.311 213.499 625.012 213.152 624.617 212.896C624.223 212.64 623.775 212.512 623.273 212.512C622.772 212.512 622.313 212.64 621.897 212.896C621.481 213.152 621.156 213.52 620.921 214C620.697 214.469 620.607 215.029 620.649 215.68C620.607 216.309 620.703 216.864 620.937 217.344C621.183 217.813 621.524 218.181 621.961 218.448C622.409 218.704 622.895 218.832 623.417 218.832C623.993 218.832 624.479 218.699 624.873 218.432C625.268 218.165 625.588 217.824 625.833 217.408L627.081 218.048C626.911 218.443 626.644 218.805 626.281 219.136C625.929 219.456 625.508 219.712 625.017 219.904C624.537 220.096 623.999 220.192 623.401 220.192ZM629.261 220V207.888H630.749V220H629.261ZM633.058 220V207.888H634.546V220H633.058ZM636.855 220V211.376H638.343V220H636.855ZM636.855 210V208.08H638.343V210H636.855ZM644.764 223.52C644.156 223.52 643.591 223.424 643.068 223.232C642.556 223.04 642.113 222.773 641.74 222.432C641.377 222.101 641.1 221.712 640.908 221.264L642.3 220.624C642.449 221.029 642.732 221.371 643.148 221.648C643.575 221.936 644.108 222.08 644.748 222.08C645.239 222.08 645.681 221.984 646.076 221.792C646.481 221.611 646.801 221.333 647.036 220.96C647.271 220.597 647.388 220.155 647.388 219.632V217.696L647.66 217.984C647.361 218.571 646.929 219.019 646.364 219.328C645.809 219.637 645.196 219.792 644.524 219.792C643.713 219.792 642.988 219.605 642.348 219.232C641.708 218.848 641.207 218.331 640.844 217.68C640.481 217.019 640.3 216.288 640.3 215.488C640.3 214.677 640.481 213.947 640.844 213.296C641.207 212.645 641.703 212.133 642.332 211.76C642.972 211.376 643.697 211.184 644.508 211.184C645.18 211.184 645.788 211.339 646.332 211.648C646.887 211.947 647.329 212.363 647.66 212.896L647.436 213.296V211.376H648.892V219.632C648.892 220.379 648.716 221.045 648.364 221.632C648.012 222.219 647.521 222.677 646.892 223.008C646.273 223.349 645.564 223.52 644.764 223.52ZM644.652 218.352C645.164 218.352 645.623 218.224 646.028 217.968C646.444 217.712 646.775 217.371 647.02 216.944C647.265 216.507 647.388 216.021 647.388 215.488C647.388 214.965 647.265 214.485 647.02 214.048C646.775 213.611 646.444 213.264 646.028 213.008C645.623 212.752 645.164 212.624 644.652 212.624C644.129 212.624 643.655 212.752 643.228 213.008C642.801 213.264 642.465 213.611 642.22 214.048C641.985 214.475 641.868 214.955 641.868 215.488C641.868 216.021 641.985 216.507 642.22 216.944C642.465 217.371 642.796 217.712 643.212 217.968C643.639 218.224 644.119 218.352 644.652 218.352ZM655.167 220.192C654.335 220.192 653.594 219.995 652.943 219.6C652.292 219.205 651.78 218.667 651.407 217.984C651.034 217.291 650.847 216.517 650.847 215.664C650.847 214.8 651.028 214.032 651.391 213.36C651.764 212.688 652.266 212.16 652.895 211.776C653.535 211.381 654.25 211.184 655.039 211.184C655.679 211.184 656.244 211.301 656.735 211.536C657.236 211.76 657.658 212.069 657.999 212.464C658.351 212.848 658.618 213.291 658.799 213.792C658.991 214.283 659.087 214.795 659.087 215.328C659.087 215.445 659.076 215.579 659.055 215.728C659.044 215.867 659.028 216 659.007 216.128H651.935V214.848H658.143L657.439 215.424C657.535 214.869 657.482 214.373 657.279 213.936C657.076 213.499 656.778 213.152 656.383 212.896C655.988 212.64 655.54 212.512 655.039 212.512C654.538 212.512 654.079 212.64 653.663 212.896C653.247 213.152 652.922 213.52 652.687 214C652.463 214.469 652.372 215.029 652.415 215.68C652.372 216.309 652.468 216.864 652.703 217.344C652.948 217.813 653.29 218.181 653.727 218.448C654.175 218.704 654.66 218.832 655.183 218.832C655.759 218.832 656.244 218.699 656.639 218.432C657.034 218.165 657.354 217.824 657.599 217.408L658.847 218.048C658.676 218.443 658.41 218.805 658.047 219.136C657.695 219.456 657.274 219.712 656.783 219.904C656.303 220.096 655.764 220.192 655.167 220.192ZM661.027 220V211.376H662.483V213.056L662.243 212.912C662.456 212.368 662.798 211.947 663.267 211.648C663.747 211.339 664.307 211.184 664.947 211.184C665.566 211.184 666.115 211.323 666.595 211.6C667.086 211.877 667.47 212.261 667.747 212.752C668.035 213.243 668.179 213.797 668.179 214.416V220H666.675V214.896C666.675 214.416 666.59 214.011 666.419 213.68C666.248 213.349 666.003 213.093 665.683 212.912C665.374 212.72 665.016 212.624 664.611 212.624C664.206 212.624 663.843 212.72 663.523 212.912C663.214 213.093 662.968 213.355 662.787 213.696C662.606 214.027 662.515 214.427 662.515 214.896V220H661.027ZM674.308 220.192C673.466 220.192 672.714 219.995 672.052 219.6C671.402 219.205 670.89 218.667 670.516 217.984C670.143 217.301 669.956 216.533 669.956 215.68C669.956 214.816 670.143 214.048 670.516 213.376C670.89 212.704 671.402 212.171 672.052 211.776C672.714 211.381 673.466 211.184 674.308 211.184C674.874 211.184 675.402 211.285 675.892 211.488C676.383 211.691 676.815 211.963 677.188 212.304C677.562 212.645 677.834 213.045 678.004 213.504L676.676 214.144C676.474 213.696 676.164 213.333 675.748 213.056C675.332 212.768 674.852 212.624 674.308 212.624C673.786 212.624 673.311 212.757 672.884 213.024C672.468 213.291 672.138 213.653 671.892 214.112C671.647 214.571 671.524 215.099 671.524 215.696C671.524 216.272 671.647 216.795 671.892 217.264C672.138 217.723 672.468 218.085 672.884 218.352C673.311 218.619 673.786 218.752 674.308 218.752C674.852 218.752 675.332 218.613 675.748 218.336C676.164 218.048 676.474 217.669 676.676 217.2L678.004 217.872C677.834 218.32 677.562 218.72 677.188 219.072C676.815 219.413 676.383 219.685 675.892 219.888C675.402 220.091 674.874 220.192 674.308 220.192ZM683.917 220.192C683.085 220.192 682.344 219.995 681.693 219.6C681.042 219.205 680.53 218.667 680.157 217.984C679.784 217.291 679.597 216.517 679.597 215.664C679.597 214.8 679.778 214.032 680.141 213.36C680.514 212.688 681.016 212.16 681.645 211.776C682.285 211.381 683 211.184 683.789 211.184C684.429 211.184 684.994 211.301 685.485 211.536C685.986 211.76 686.408 212.069 686.749 212.464C687.101 212.848 687.368 213.291 687.549 213.792C687.741 214.283 687.837 214.795 687.837 215.328C687.837 215.445 687.826 215.579 687.805 215.728C687.794 215.867 687.778 216 687.757 216.128H680.685V214.848H686.893L686.189 215.424C686.285 214.869 686.232 214.373 686.029 213.936C685.826 213.499 685.528 213.152 685.133 212.896C684.738 212.64 684.29 212.512 683.789 212.512C683.288 212.512 682.829 212.64 682.413 212.896C681.997 213.152 681.672 213.52 681.437 214C681.213 214.469 681.122 215.029 681.165 215.68C681.122 216.309 681.218 216.864 681.453 217.344C681.698 217.813 682.04 218.181 682.477 218.448C682.925 218.704 683.41 218.832 683.933 218.832C684.509 218.832 684.994 218.699 685.389 218.432C685.784 218.165 686.104 217.824 686.349 217.408L687.597 218.048C687.426 218.443 687.16 218.805 686.797 219.136C686.445 219.456 686.024 219.712 685.533 219.904C685.053 220.096 684.514 220.192 683.917 220.192Z" fill="#A4B1CA"/>
<defs>
<filter id="filter0_d_68_1707" x="0.299999" y="0.299999" width="141.4" height="141.4" filterUnits="userSpaceOnUse" color-interpolation-filters="sRGB">
<feFlood flood-opacity="0" result="BackgroundImageFix"/>
<feColorMatrix in="SourceAlpha" type="matrix" values="0 0 0 0 0 0 0 0 0 0 0 0 0 0 0 0 0 0 127 0" result="hardAlpha"/>
<feOffset dy="12"/>
<feGaussianBlur stdDeviation="11.35"/>
<feComposite in2="hardAlpha" operator="out"/>
<feColorMatrix type="matrix" values="0 0 0 0 0 0 0 0 0 0.52549 0 0 0 0 0.278431 0 0 0 0.25 0"/>
<feBlend mode="normal" in2="BackgroundImageFix" result="effect1_dropShadow_68_1707"/>
<feBlend mode="normal" in="SourceGraphic" in2="effect1_dropShadow_68_1707" result="shape"/>
</filter>
<filter id="filter1_d_68_1707" x="121.3" y="136.3" width="141.4" height="141.4" filterUnits="userSpaceOnUse" color-interpolation-filters="sRGB">
<feFlood flood-opacity="0" result="BackgroundImageFix"/>
<feColorMatrix in="SourceAlpha" type="matrix" values="0 0 0 0 0 0 0 0 0 0 0 0 0 0 0 0 0 0 127 0" result="hardAlpha"/>
<feOffset dy="12"/>
<feGaussianBlur stdDeviation="11.35"/>
<feComposite in2="hardAlpha" operator="out"/>
<feColorMatrix type="matrix" values="0 0 0 0 0 0 0 0 0 0.52549 0 0 0 0 0.278431 0 0 0 0.25 0"/>
<feBlend mode="normal" in2="BackgroundImageFix" result="effect1_dropShadow_68_1707"/>
<feBlend mode="normal" in="SourceGraphic" in2="effect1_dropShadow_68_1707" result="shape"/>
</filter>
<filter id="filter2_d_68_1707" x="101.596" y="136.096" width="64.8083" height="64.8083" filterUnits="userSpaceOnUse" color-interpolation-filters="sRGB">
<feFlood flood-opacity="0" result="BackgroundImageFix"/>
<feColorMatrix in="SourceAlpha" type="matrix" values="0 0 0 0 0 0 0 0 0 0 0 0 0 0 0 0 0 0 127 0" result="hardAlpha"/>
<feOffset dy="5.5"/>
<feGaussianBlur stdDeviation="5.20208"/>
<feComposite in2="hardAlpha" operator="out"/>
<feColorMatrix type="matrix" values="0 0 0 0 0 0 0 0 0 0.52549 0 0 0 0 0.278431 0 0 0 0.25 0"/>
<feBlend mode="normal" in2="BackgroundImageFix" result="effect1_dropShadow_68_1707"/>
<feBlend mode="normal" in="SourceGraphic" in2="effect1_dropShadow_68_1707" result="shape"/>
</filter>
<filter id="filter3_d_68_1707" x="4.3" y="124.3" width="117.4" height="117.4" filterUnits="userSpaceOnUse" color-interpolation-filters="sRGB">
<feFlood flood-opacity="0" result="BackgroundImageFix"/>
<feColorMatrix in="SourceAlpha" type="matrix" values="0 0 0 0 0 0 0 0 0 0 0 0 0 0 0 0 0 0 127 0" result="hardAlpha"/>
<feOffset dy="12"/>
<feGaussianBlur stdDeviation="11.35"/>
<feComposite in2="hardAlpha" operator="out"/>
<feColorMatrix type="matrix" values="0 0 0 0 0 0 0 0 0 0.52549 0 0 0 0 0.278431 0 0 0 0.25 0"/>
<feBlend mode="normal" in2="BackgroundImageFix" result="effect1_dropShadow_68_1707"/>
<feBlend mode="normal" in="SourceGraphic" in2="effect1_dropShadow_68_1707" result="shape"/>
</filter>
<linearGradient id="paint0_linear_68_1707" x1="1046.19" y1="202" x2="721.477" y2="133.045" gradientUnits="userSpaceOnUse">
<stop stop-color="#6ED1A2" stop-opacity="0.25"/>
<stop offset="1" stop-color="#F5F5FF"/>
</linearGradient>
<linearGradient id="paint1_linear_68_1707" x1="571" y1="125" x2="195" y2="31" gradientUnits="userSpaceOnUse">
<stop stop-color="#6ED1A2" stop-opacity="0.25"/>
<stop offset="1" stop-color="#F5F5FF"/>
</linearGradient>
<linearGradient id="paint2_linear_68_1707" x1="572.973" y1="129" x2="190.969" y2="31.7647" gradientUnits="userSpaceOnUse">
<stop offset="0.00516033" stop-color="#33B97A"/>
<stop offset="1" stop-color="#F5F5FF"/>
</linearGradient>
<linearGradient id="paint3_linear_68_1707" x1="551.375" y1="129" x2="273.683" y2="178.808" gradientUnits="userSpaceOnUse">
<stop stop-color="#6ED1A2" stop-opacity="0.25"/>
<stop offset="1" stop-color="#F5F5FF"/>
</linearGradient>
<linearGradient id="paint4_linear_68_1707" x1="551.375" y1="129" x2="273.683" y2="178.808" gradientUnits="userSpaceOnUse">
<stop stop-color="#6ED1A2" stop-opacity="0.25"/>
<stop offset="1" stop-color="#F5F5FF"/>
</linearGradient>
<linearGradient id="paint5_linear_68_1707" x1="551.162" y1="125" x2="270.961" y2="175.743" gradientUnits="userSpaceOnUse">
<stop offset="0.00516033" stop-color="#33B97A"/>
<stop offset="1" stop-color="#F5F5FF"/>
</linearGradient>
</defs>
</svg>
