<svg width="32" height="32" viewBox="0 0 32 32" fill="none" xmlns="http://www.w3.org/2000/svg">
<path opacity="0.4" d="M25.4932 12.16C24.9732 12.16 24.5599 12.5733 24.5599 13.0933V15.2C24.5599 19.92 20.7199 23.76 15.9999 23.76C11.2799 23.76 7.43991 19.92 7.43991 15.2V13.08C7.43991 12.56 7.02658 12.1467 6.50658 12.1467C5.98658 12.1467 5.57324 12.56 5.57324 13.08V15.1867C5.57324 20.6133 9.74658 25.08 15.0666 25.56V28.4C15.0666 28.92 15.4799 29.3333 15.9999 29.3333C16.5199 29.3333 16.9332 28.92 16.9332 28.4V25.56C22.2399 25.0933 26.4266 20.6133 26.4266 15.1867V13.08C26.4132 12.5733 25.9999 12.16 25.4932 12.16Z" fill="#008647"/>
<path d="M15.9998 2.66666C12.7464 2.66666 10.1064 5.30666 10.1064 8.55999V15.3867C10.1064 18.64 12.7464 21.28 15.9998 21.28C19.2531 21.28 21.8931 18.64 21.8931 15.3867V8.55999C21.8931 5.30666 19.2531 2.66666 15.9998 2.66666ZM17.7464 11.9333C17.6531 12.28 17.3464 12.5067 16.9998 12.5067C16.9331 12.5067 16.8664 12.4933 16.7998 12.48C16.2798 12.3333 15.7331 12.3333 15.2131 12.48C14.7864 12.6 14.3731 12.3467 14.2664 11.9333C14.1464 11.52 14.3998 11.0933 14.8131 10.9867C15.5998 10.7733 16.4264 10.7733 17.2131 10.9867C17.6131 11.0933 17.8531 11.52 17.7464 11.9333ZM18.4531 9.34666C18.3331 9.66666 18.0398 9.85332 17.7198 9.85332C17.6264 9.85332 17.5464 9.83999 17.4531 9.81332C16.5198 9.46666 15.4798 9.46666 14.5464 9.81332C14.1464 9.95999 13.6931 9.74666 13.5464 9.34666C13.3998 8.94666 13.6131 8.49332 14.0131 8.35999C15.2931 7.89332 16.7064 7.89332 17.9864 8.35999C18.3864 8.50666 18.5998 8.94666 18.4531 9.34666Z" fill="#008647"/>
</svg>
