<svg width="33" height="33" viewBox="0 0 33 33" fill="none" xmlns="http://www.w3.org/2000/svg">
<path opacity="0.4" d="M25.9932 12.6599C25.4732 12.6599 25.0599 13.0733 25.0599 13.5933V15.6999C25.0599 20.4199 21.2199 24.2599 16.4999 24.2599C11.7799 24.2599 7.93991 20.4199 7.93991 15.6999V13.5799C7.93991 13.0599 7.52658 12.6466 7.00658 12.6466C6.48658 12.6466 6.07324 13.0599 6.07324 13.5799V15.6866C6.07324 21.1133 10.2466 25.5799 15.5666 26.0599V28.8999C15.5666 29.4199 15.9799 29.8333 16.4999 29.8333C17.0199 29.8333 17.4332 29.4199 17.4332 28.8999V26.0599C22.7399 25.5933 26.9266 21.1133 26.9266 15.6866V13.5799C26.9132 13.0733 26.4999 12.6599 25.9932 12.6599Z" fill="#008647"/>
<path d="M16.4998 3.16663C13.2464 3.16663 10.6064 5.80663 10.6064 9.05996V15.8866C10.6064 19.14 13.2464 21.78 16.4998 21.78C19.7531 21.78 22.3931 19.14 22.3931 15.8866V9.05996C22.3931 5.80663 19.7531 3.16663 16.4998 3.16663ZM18.2464 12.4333C18.1531 12.78 17.8464 13.0066 17.4998 13.0066C17.4331 13.0066 17.3664 12.9933 17.2998 12.98C16.7798 12.8333 16.2331 12.8333 15.7131 12.98C15.2864 13.1 14.8731 12.8466 14.7664 12.4333C14.6464 12.02 14.8998 11.5933 15.3131 11.4866C16.0998 11.2733 16.9264 11.2733 17.7131 11.4866C18.1131 11.5933 18.3531 12.02 18.2464 12.4333ZM18.9531 9.84663C18.8331 10.1666 18.5398 10.3533 18.2198 10.3533C18.1264 10.3533 18.0464 10.34 17.9531 10.3133C17.0198 9.96663 15.9798 9.96663 15.0464 10.3133C14.6464 10.46 14.1931 10.2466 14.0464 9.84663C13.8998 9.44663 14.1131 8.99329 14.5131 8.85996C15.7931 8.39329 17.2064 8.39329 18.4864 8.85996C18.8864 9.00663 19.0998 9.44663 18.9531 9.84663Z" fill="#008647"/>
</svg>
