<svg width="100" height="100" viewBox="0 0 100 100" fill="none" xmlns="http://www.w3.org/2000/svg">
<path d="M87.0413 21.5833V68.6666C87.0413 76.9166 80.333 83.625 72.083 83.625C63.8747 83.625 57.1247 76.9166 57.1247 68.6666C57.1247 60.4583 63.8747 53.75 72.083 53.75C75.583 53.75 78.708 54.9583 81.2497 56.9583V32.1666L42.8747 43.0833V76.7083C42.8747 84.9583 36.1247 91.6666 27.9163 91.6666C19.6663 91.6666 12.958 84.9583 12.958 76.7083C12.958 68.5 19.6663 61.7916 27.9163 61.7916C31.3747 61.7916 34.4997 63 37.0413 64.9583V28.125C37.0413 22 40.7497 17.25 46.6247 15.6666L70.708 9.0833C75.583 7.74996 79.708 8.2083 82.6247 10.4583C85.583 12.6666 87.0413 16.4166 87.0413 21.5833Z" fill="#7DD2AA"/>
</svg>
