<svg width="85" height="84" viewBox="0 0 85 84" fill="none" xmlns="http://www.w3.org/2000/svg">
<path d="M42.4997 0.333374C19.4997 0.333374 0.833008 19 0.833008 42C0.833008 65 19.4997 83.6667 42.4997 83.6667C65.4997 83.6667 84.1664 65 84.1664 42C84.1664 19 65.4997 0.333374 42.4997 0.333374ZM20.6247 50.9167C20.6247 52.625 19.208 54.0417 17.4997 54.0417C15.7913 54.0417 14.3747 52.625 14.3747 50.9167V33.0834C14.3747 31.375 15.7913 29.9584 17.4997 29.9584C19.208 29.9584 20.6247 31.375 20.6247 33.0834V50.9167ZM33.1247 56.875C33.1247 58.5834 31.708 60 29.9997 60C28.2913 60 26.8747 58.5834 26.8747 56.875V27.125C26.8747 25.4167 28.2913 24 29.9997 24C31.708 24 33.1247 25.4167 33.1247 27.125V56.875ZM45.6247 62.8334C45.6247 64.5417 44.208 65.9584 42.4997 65.9584C40.7913 65.9584 39.3747 64.5417 39.3747 62.8334V21.1667C39.3747 19.4584 40.7913 18.0417 42.4997 18.0417C44.208 18.0417 45.6247 19.4584 45.6247 21.1667V62.8334ZM58.1247 56.875C58.1247 58.5834 56.708 60 54.9997 60C53.2913 60 51.8747 58.5834 51.8747 56.875V27.125C51.8747 25.4167 53.2913 24 54.9997 24C56.708 24 58.1247 25.4167 58.1247 27.125V56.875ZM70.6247 50.9167C70.6247 52.625 69.208 54.0417 67.4997 54.0417C65.7913 54.0417 64.3747 52.625 64.3747 50.9167V33.0834C64.3747 31.375 65.7913 29.9584 67.4997 29.9584C69.208 29.9584 70.6247 31.375 70.6247 33.0834V50.9167Z" fill="#7DD2AA"/>
</svg>
